<svg xmlns="http://www.w3.org/2000/svg" viewBox="0 0 165.16 288.25"><defs><style>.cls-1,.cls-5,.cls-7,.cls-8{fill:none;}.cls-1,.cls-2,.cls-3,.cls-5{stroke:#231815;}.cls-1,.cls-2,.cls-3,.cls-5,.cls-7,.cls-8{stroke-miterlimit:10;}.cls-1,.cls-2,.cls-3{stroke-width:4px;}.cls-2,.cls-6{fill:#231815;}.cls-3,.cls-4{fill:#fff;}.cls-5,.cls-7,.cls-8{stroke-width:5px;}.cls-7{stroke:#c9caca;}.cls-8{stroke:#dcdddd;}</style></defs><g id="레이어_2" data-name="레이어 2"><g id="레이어_1-2" data-name="레이어 1"><rect class="cls-1" x="7.51" y="79.49" width="147.84" height="190.18" rx="15.23"/><rect class="cls-1" x="58.88" y="11.74" width="42.87" height="67.23"/><rect class="cls-2" x="49.16" y="2" width="63.16" height="17.59" rx="6.13"/><rect class="cls-3" x="55.73" y="16.44" width="6.29" height="6.29" rx="3.14"/><rect class="cls-3" x="98.61" y="16.44" width="6.29" height="6.29" rx="3.14"/><path class="cls-4" d="M10.39,90.42c-.73,6.84-7.82,16.88-.38,22.22,2.86,2,6.76-.72,6.77-3.89,0-4.16-1.68-13.91,1.68-16.54,4-3.17,11.79-4,16.68-4.36v-9c-8.38.93-16.88-1.38-22.44,6.64A35.48,35.48,0,0,0,7.4,96.35c-1.3,5.05,1.49,9.93-.22,14.7-1.76,5,5.62,7.66,8.23,3.47a9.77,9.77,0,0,0,1.51-4.91c.54-5.76-8.46-5.72-9,0l-.28.37,8.22,3.47a17.1,17.1,0,0,0,.76-8.91c-.73-4.29-.48-6.88,1.63-10.79,1.72-3.2,3-5.27,6.79-5.76,3.33-.42,6.74.23,10.1-.14,5.64-.62,5.86-9.41,0-9-7.78.54-17.37,2.18-23.74,7.08C8.63,88.06,8,90.85,7.83,94.18c-.24,4.83,0,9.73,0,14.57l6.77-3.88-.63-.46L16,107.1c-.9-2.68.71-5.95,1.56-8.46a37.93,37.93,0,0,0,1.85-8.22c.6-5.75-8.4-5.71-9,0Z"/><path class="cls-2" d="M40.21,79.84l0,3.24a5.58,5.58,0,0,1-5.58,5.58H28.9s-13.27-.08-12.13,18.78L17,111.8A4.88,4.88,0,0,1,12.15,117H7.51L7.78,93s1.59-13.41,17.73-13.2S40.21,79.84,40.21,79.84Z"/><path class="cls-4" d="M143.49,90.42a36.91,36.91,0,0,0,1.85,8.22c.85,2.52,2.46,5.77,1.55,8.46l2.07-2.69-.64.46,6.77,3.88c0-4.84.19-9.74,0-14.57-.16-3.33-.8-6.12-3.58-8.25-6.37-4.9-15.95-6.54-23.74-7.08-5.85-.4-5.64,8.38,0,9,3.37.38,6.76-.23,10.1.14,3.72.42,5.13,2.69,6.79,5.76,2.25,4.13,2.36,6.3,1.64,10.79a17.12,17.12,0,0,0,.75,8.91l8.22-3.47-.27-.37c-.54-5.71-9.55-5.77-9,0a9.66,9.66,0,0,0,1.5,4.91c2.59,4.14,10,1.53,8.23-3.47-1.63-4.56.95-9.13-.06-13.91a33.72,33.72,0,0,0-5.46-11.65c-5.55-8-14.07-5.71-22.44-6.64v9c4.9.34,12.66,1.18,16.69,4.36,3.36,2.65,1.66,12.41,1.67,16.54,0,3.17,3.92,5.94,6.78,3.89,7.43-5.34.34-15.39-.38-22.22-.61-5.7-9.61-5.76-9,0Z"/><path class="cls-2" d="M122.66,79.84l0,3.24a5.58,5.58,0,0,0,5.58,5.58H134s13.27-.08,12.13,18.78l-.26,4.36a4.88,4.88,0,0,0,4.88,5.18h4.64L155.09,93s-1.59-13.41-17.73-13.2S122.66,79.84,122.66,79.84Z"/><rect class="cls-1" x="155.36" y="151.34" width="6.6" height="47.78" rx="3.3"/><circle class="cls-5" cx="151.65" cy="274.73" r="11.01"/><rect class="cls-6" x="145.97" y="254.6" width="5.19" height="22.68" rx="2.59" transform="translate(-91.54 78.47) rotate(-22.83)"/><circle class="cls-5" cx="13.51" cy="274.73" r="11.01"/><rect class="cls-6" x="14.62" y="254.6" width="5.19" height="22.68" rx="2.59" transform="translate(-70.1 517.74) rotate(-157.17)"/><rect class="cls-7" x="44.57" y="129.65" width="16.03" height="97.06" rx="8.01"/><rect class="cls-7" x="76.24" y="129.65" width="16.03" height="97.06" rx="8.01"/><rect class="cls-7" x="106.6" y="129.65" width="16.03" height="97.06" rx="8.01"/><rect class="cls-6" x="2.5" y="126.48" width="5.01" height="30.97"/><rect class="cls-6" x="2.5" y="214.12" width="5.01" height="30.97"/><path class="cls-8" d="M9.5,243.1H27.07a12.06,12.06,0,0,1,12.06,12.06v12.53"/><path class="cls-8" d="M153.41,243.07H135.84a12.06,12.06,0,0,0-12.06,12.06v12.53"/></g></g></svg>