<svg xmlns="http://www.w3.org/2000/svg" viewBox="0 0 230.98 252.86"><defs><style>.cls-1,.cls-2,.cls-4{fill:none;}.cls-2,.cls-3{stroke:#231815;stroke-width:4px;}.cls-2,.cls-3,.cls-4{stroke-miterlimit:10;}.cls-3{fill:#231815;}.cls-4{stroke:#fff;stroke-width:2.5px;}.cls-5{font-size:23.11px;fill:#fff;font-family:EliceDigitalBaeum-Bd, Elice DigitalBaeum;}.cls-6{letter-spacing:-0.09em;}.cls-7{letter-spacing:-0.03em;}.cls-8{letter-spacing:-0.03em;}</style></defs><g id="레이어_2" data-name="레이어 2"><g id="레이어_1-2" data-name="레이어 1"><path class="cls-1" d="M210.29,23.75l-8.54,21.49,24.65,4.84c-1.52-2.35-3-4.69-4.42-7Q216.19,33.37,210.29,23.75Z"/><path class="cls-2" d="M201.75,45.24l8.54-21.49c-.7-1.15-1.4-2.31-2.11-3.46l-123.5-18L51.61,228.9l148.6,21.69L228.89,54q-1.23-2-2.49-3.94Z"/><path class="cls-2" d="M210.29,23.75l-8.54,21.49,24.65,4.84c-1.52-2.35-3-4.69-4.42-7Q216.19,33.37,210.29,23.75Z"/><rect class="cls-3" x="8.07" y="57.4" width="141.51" height="189.19" rx="8.53" transform="translate(-10.8 6.11) rotate(-4.15)"/><rect class="cls-2" x="13.58" y="57" width="141.51" height="189.19" rx="8.53" transform="translate(-10.75 6.5) rotate(-4.15)"/><ellipse class="cls-4" cx="77.52" cy="126.43" rx="14.38" ry="34.2" transform="translate(-8.95 5.94) rotate(-4.15)"/><line class="cls-4" x1="43.49" y1="128.9" x2="111.55" y2="123.96"/><line class="cls-4" x1="75.04" y1="92.32" x2="79.99" y2="160.53"/><path class="cls-4" d="M76.82,116.86a40.57,40.57,0,0,1-28.15-8.65,34.12,34.12,0,1,0,54.76-4A40.58,40.58,0,0,1,76.82,116.86Z"/><path class="cls-4" d="M103.43,104.24a34.11,34.11,0,0,0-54.76,4,40.67,40.67,0,0,0,54.76-4Z"/><path class="cls-4" d="M51.61,148.69a34.11,34.11,0,0,0,54.76-4,40.7,40.7,0,0,0-54.76,4Z"/><text class="cls-5" transform="matrix(1, -0.07, 0.07, 1, 29, 207.07)"><tspan class="cls-6">P</tspan><tspan class="cls-7" x="12.2" y="0">A</tspan><tspan x="26.44" y="0">SSPO</tspan><tspan class="cls-8" x="82.98" y="0">R</tspan><tspan x="96.75" y="0">T</tspan></text></g></g></svg>