<svg xmlns="http://www.w3.org/2000/svg" viewBox="0 0 226.53 198.22"><defs><style>.cls-1{fill:#cae8f4;}.cls-2{isolation:isolate;}.cls-3{fill:#89caf0;}.cls-4{fill:#d0ebf6;}.cls-4,.cls-5{stroke:#3050a1;}.cls-11,.cls-12,.cls-4,.cls-5{stroke-miterlimit:10;}.cls-11,.cls-4,.cls-5{stroke-width:4px;}.cls-11,.cls-12,.cls-5{fill:none;}.cls-6{fill:#2fa5df;}.cls-7{fill:#2f9bd7;}.cls-8{fill:#2f95d3;}.cls-9{fill:#a7dae8;}.cls-10{fill:#0a1734;}.cls-11,.cls-12{stroke:#0a1734;}.cls-12{stroke-width:3px;}</style></defs><g id="레이어_2" data-name="레이어 2"><g id="레이어_1-2" data-name="레이어 1"><circle class="cls-1" cx="113.76" cy="99.11" r="99.11"/><g class="cls-2"><path class="cls-3" d="M83.3,111.33a55.62,55.62,0,0,0,22.92-4.71c4.29-1.83,1.86-8.38-2.27-8.39a104.05,104.05,0,0,0-38.22,7.09C62,106.78,61,113,65.73,114a41.54,41.54,0,0,0,16.77.11l-2.39-8.67-11.43,4.1c-5.38,1.93-3.17,10.49,2.39,8.67a223.93,223.93,0,0,0,35-14.83l-4.54-7.77-12.71,8.13c-4.86,3.11-.38,10.87,4.55,7.77l20.15-12.68-5.45-7.06L95.42,105.88a4.52,4.52,0,0,0,5.45,7.07,133.32,133.32,0,0,0,36.2-25.47c4.18-4.12-2-10-6.37-6.36a82.79,82.79,0,0,0-15.41,17.37c-2.68,4,2.42,8,6.15,6.16a113.21,113.21,0,0,0,24.63-16.78l-6.36-6.36L129.59,94.27c-3.12,3.93.66,9.45,5.46,7.07a115.83,115.83,0,0,0,24.71-16.65l-6.36-6.36L143.07,90.81c-3.64,4.41,2,10.36,6.37,6.37l18.8-17.38-7.52-4.38a36.25,36.25,0,0,1-6.47,13.68L162,93.64a35.07,35.07,0,0,1,8.47-9.37l-6.61-5.08-6.07,15.74c-1.11,2.85,1.68,5.6,4.34,5.69,8.71.32,17.65-3.61,22.58-11,3.74-5.63,4-16.57-5-17.08-7.21-.4-11.32,8.91-8,14.65,5.69,9.71,17.34,3.87,25.75,6.19a4.55,4.55,0,0,0,5.54-3.15,12,12,0,0,0-6.37-13.36c-6.05-3.31-13-.89-18.89,1.57-13,5.47-25.94,11.26-36.4,21l6.37,6.36c5.14-5.57,1.64-14.48-5.75-15.65-3.83-.61-7.58.93-10.56,3.27s-8.21,11.4-12.47,9.44l.91,7.06a35.89,35.89,0,0,1,17.53-7.25l-5.53-3.15.31.94.46-3.47c-.78,1.54-6.47,2.07-8,2.43-2.72.64-5.47,1.18-8.23,1.62a118.76,118.76,0,0,1-17.36,1.34c-5.79.06-5.81,9.06,0,9a129.71,129.71,0,0,0,27.07-3.07c5.27-1.18,17.22-3,14.44-11.18-.86-2.52-3-3.51-5.53-3.14a44.24,44.24,0,0,0-21.51,9.57c-2.15,1.71-1.54,5.94.92,7.07a13.25,13.25,0,0,0,13.93-1.48,35.42,35.42,0,0,0,5.57-5.58,17.53,17.53,0,0,1,3.71-3.59c.59-.34,4.13-1,3.74-.54-3.93,4.26,2.12,10.32,6.37,6.36,6.56-6.11,14.29-10.49,22.38-14.26,4-1.89,8.14-3.72,12.29-5.36,2.22-.88,13.19-4.31,11.94,1.66l5.53-3.14c-3.91-1.08-7.57-.8-11.57-.48-2,.15-4.15.49-6.08-.09a4.51,4.51,0,0,1-2.72-1.49c.31-.62.14-1-.52-1.21-.72-.75-.93-.52-.63.7a5.54,5.54,0,0,1-1,2.34,14.05,14.05,0,0,1-4,4,17.62,17.62,0,0,1-11.23,3.14l4.34,5.7,6.07-15.74c1.35-3.5-3.54-7.41-6.61-5.08a47.29,47.29,0,0,0-11.7,12.6c-3.17,5,4.38,9.05,7.77,4.54a42.43,42.43,0,0,0,7.38-15.82,4.54,4.54,0,0,0-7.52-4.38L143.07,90.81l6.37,6.37,10.32-12.49c3.68-4.43-1.95-10.22-6.36-6.36a107.06,107.06,0,0,1-22.9,15.24l5.46,7.06,10.11-12.76c3.55-4.46-1.94-10.29-6.36-6.36A104.32,104.32,0,0,1,116.9,96.87l6.16,6.16a74.28,74.28,0,0,1,14-15.55l-6.37-6.36a125.65,125.65,0,0,1-34.37,24.06l5.45,7.07,12.65-14.12c3.27-3.65-.93-9.91-5.45-7.07L88.82,103.74l4.55,7.77,12.7-8.13c4.88-3.12.6-10.48-4.54-7.77a211.35,211.35,0,0,1-32.85,13.93l2.39,8.67,11.43-4.1a4.5,4.5,0,0,0-2.39-8.67,29.71,29.71,0,0,1-12-.12V114A97,97,0,0,1,104,107.23l-2.27-8.38a44.91,44.91,0,0,1-18.38,3.48c-5.79-.07-5.79,8.93,0,9Z"/></g><path class="cls-4" d="M16.38,49.35l.35-2.48A23.75,23.75,0,0,1,40.89,26.31l1.25.07c16.92,1.36,19.78,15.91,19.78,15.91S74.29,38.56,79,50.07,72.08,72.4,72.08,72.4L5.47,70.71S-2.64,51.72,16.38,49.35Z"/><path class="cls-4" d="M166.88,148.64l.24-1.77c1.15-8.57,8.12-15.05,16.25-14.72l.84.06a14.59,14.59,0,0,1,13.31,11.37s8.32-2.66,11.5,5.57-4.67,16-4.67,16l-44.81-1.21S154.09,150.33,166.88,148.64Z"/><circle class="cls-5" cx="138.89" cy="44.44" r="4.9"/><circle class="cls-5" cx="129.7" cy="148.63" r="4.9"/><g class="cls-2"><path class="cls-3" d="M40.2,112.47c24.41-1.92,48-8.26,71.53-14.77l-3.47-8.23A261.77,261.77,0,0,1,67,105.24q-10.48,3-21.19,5.14c-3.27.65-6.55,1.23-9.84,1.76-1.35.21-4.4,0-5.47.78q-2.37-.18.23,2a15.77,15.77,0,0,1,3-.78c5-1,3.86-9-1.2-8.84a38.82,38.82,0,0,0-17,4.59c-2.86,1.51-3,6.3,0,7.77a30.5,30.5,0,0,0,20,2.6c5.67-1.12,3.27-9.8-2.4-8.68a20.1,20.1,0,0,1-13-1.69v7.77a28.28,28.28,0,0,1,12.42-3.36l-1.19-8.84c-3.8.78-7.48,2.3-9,6.1a7.51,7.51,0,0,0,2,8.82c3.43,2.72,8.37,1.28,12.26.69q8.08-1.25,16.08-3a271.55,271.55,0,0,0,60.21-20.89c4.65-2.24,1.36-9.56-3.47-8.22-22.71,6.29-45.56,12.59-69.14,14.45-5.74.45-5.79,9.45,0,9Z"/></g><g class="cls-2"><path class="cls-3" d="M26.8,113.2c15.7.79,30.49-4.33,45.12-9.37,16.15-5.55,32.09-9.38,49.27-9.27,5.79,0,5.8-9,0-9C104.53,85.45,88.6,88.68,72.87,94c-15,5.08-30,11-46.07,10.19-5.79-.29-5.77,8.71,0,9Z"/></g><g class="cls-2"><path class="cls-3" d="M118.87,92.69c10.93.65,20.93-3.36,30.94-7.21,11.26-4.33,22.16-6.72,34.27-5.26,5.74.69,5.69-8.32,0-9-11.52-1.39-22.64.39-33.48,4.38-10.32,3.8-20.46,8.76-31.73,8.09-5.79-.34-5.77,8.66,0,9Z"/></g><g class="cls-2"><path class="cls-3" d="M179.48,78.35a58.52,58.52,0,0,1,26.13,7.82l4.54-7.78L202,74.05l-2.27,8.39a30.16,30.16,0,0,1,17.06,7.46l-.71-5.45c-1.5,3.49-5.82,3.87-9.15,4.61l-15.57,3.46-32.1,7.14L96,113.71c-5.65,1.26-3.26,9.94,2.39,8.68L167.46,107l34-7.57c7.43-1.65,18.82-2.33,22.31-10.48.76-1.76.91-4-.7-5.45a40.48,40.48,0,0,0-23.42-10.1c-4.5-.44-6.06,6.38-2.28,8.38l8.19,4.35c5.1,2.7,9.59-4.88,4.54-7.78a68.8,68.8,0,0,0-30.67-9c-5.79-.33-5.77,8.67,0,9Z"/></g><g class="cls-2"><path class="cls-3" d="M26.59,118.77l-2.86,4.74c-2.05,3.41,1.34,7.6,5.09,6.61a19.36,19.36,0,0,0,12.06-9.44c2.77-5.09-5-9.64-7.77-4.54a10.33,10.33,0,0,1-6.69,5.3l5.09,6.61,2.85-4.74c3-5-4.78-9.5-7.77-4.54Z"/></g><g class="cls-2"><path class="cls-3" d="M33.35,118a5.26,5.26,0,0,1-.77,3.33c-2.56,4.31,3.59,9.33,7.06,5.45a45.36,45.36,0,0,0,7.77-11.83c1-2.22.65-4.83-1.61-6.15-1.92-1.13-5.17-.62-6.16,1.61a38.39,38.39,0,0,1-6.36,10l7.07,5.45a14,14,0,0,0,2-7.87c-.27-5.76-9.28-5.8-9,0Z"/></g><g class="cls-2"><path class="cls-3" d="M42,122.48H65.26c5.79,0,5.8-9,0-9H42c-5.79,0-5.8,9,0,9Z"/></g><g class="cls-2"><path class="cls-3" d="M40.22,124l22.23,1.51c5.84.39,5.68-8.44,0-9a12.82,12.82,0,0,0-5,.49c-5.09,1.44-3.73,8.44,1.2,8.84A72.29,72.29,0,0,0,88.47,122c5.44-1.89,3.1-10.59-2.39-8.67a65.57,65.57,0,0,1-27.43,3.48l1.19,8.84a4.1,4.1,0,0,1,2.61-.17v-9L40.22,115c-5.78-.39-5.76,8.62,0,9Z"/></g><g class="cls-2"><path class="cls-3" d="M66.43,126.53a130.17,130.17,0,0,0,20.13-.77c5.59-.67,11.18-1.31,16.07-4.3s.41-10.8-4.55-7.77c-4.45,2.72-10.27,3-15.34,3.47a132.53,132.53,0,0,1-16.31.37c-5.8-.2-5.79,8.8,0,9Z"/></g><g class="cls-2"><path class="cls-3" d="M81,121.13a8.4,8.4,0,0,0,6.38-1,4.76,4.76,0,0,0,2.07-2.69A4.62,4.62,0,0,0,89,114c-1.27-2-4-3-6.15-1.61a4.83,4.83,0,0,1-.67.36l1.07-.45a4.79,4.79,0,0,1-.92.24l1.2-.16a4.31,4.31,0,0,1-.95,0l1.19.16-.37-.07a4.77,4.77,0,0,0-3.47.45,4.65,4.65,0,0,0-2.07,2.69,4.57,4.57,0,0,0,.46,3.47A4.51,4.51,0,0,0,81,121.13Z"/></g><g class="cls-2"><path class="cls-3" d="M97.72,115.65V111a4.5,4.5,0,1,0-9,0v4.66a4.5,4.5,0,0,0,9,0Z"/></g><g class="cls-2"><path class="cls-3" d="M204.34,81.7a214.1,214.1,0,0,1-26.62,5.71c-5.08.76-3.77,8.9,1.2,8.84a190.33,190.33,0,0,0,25.57-2c6.87-1,13.34-2.16,18.82-6.69,2.56-2.12,1.16-6.87-2-7.52-14.55-3-28,2-41.27,7.49s-27.71,7.77-40.89,13.54c-5.29,2.31-.72,10.07,4.54,7.77,11.9-5.21,25-7,37.08-11.95s24.84-10.93,38.15-8.17l-2-7.52c-4.42,3.66-11.72,4-17.15,4.69a182.07,182.07,0,0,1-20.87,1.38l1.2,8.84a214.1,214.1,0,0,0,26.62-5.71c5.56-1.57,3.2-10.25-2.4-8.68Z"/></g><g class="cls-2"><path class="cls-3" d="M102,113.6q-6.82,12.16-12.44,24.92c-2.31,5.25,5.44,9.83,7.77,4.54q5.63-12.76,12.44-24.92c2.84-5-4.93-9.6-7.77-4.54Z"/></g><g class="cls-2"><path class="cls-3" d="M93.33,141.05q7.19-12.92,15.15-25.37l-8.39-2.27c-.24,8-5.07,14.59-8.86,21.35-1.39,2.48-3.41,5.28-3.1,8.24A5.38,5.38,0,0,0,94,147.89c5.75-.28,11-8.26,13.58-12.62A60.11,60.11,0,0,0,112,125.9q1-2.54,1.77-5.13c.25-.82.77-4.77,1.52-5.13l-6.61-5.09L97.93,137.88c-1.47,3.73,3.48,7,6.61,5.08,5.51-3.41,9.26-9.33,13.3-14.27L132.24,111c3.63-4.45-2.7-10.85-6.37-6.36l-13.15,16.12c-3.78,4.63-7.56,11.21-12.72,14.4l6.61,5.08L117.38,113c1.57-4-3.47-6.62-6.61-5.09-5.12,2.51-5.34,10.16-7.15,14.92a49.07,49.07,0,0,1-4.24,8.6c-1.41,2.24-4.41,7.24-7.21,7.75l3.46.45-.73-.47L97.13,143c-.21-1.73,2.63-5,3.52-6.55,1.51-2.59,3-5.17,4.37-7.86a36.35,36.35,0,0,0,4.07-15.18c.14-4.64-6.07-5.88-8.38-2.27q-8,12.45-15.15,25.37c-2.82,5.06,5,9.61,7.77,4.54Z"/></g><g class="cls-2"><path class="cls-3" d="M24.32,133.41a22.49,22.49,0,0,0,6.17-.76c1.89-.58,3.44-1.8,5.27-2.49a3.58,3.58,0,0,0,2.44-4.3,3.53,3.53,0,0,0-4.3-2.45c-1.67.63-3.11,1.63-4.74,2.3a13.44,13.44,0,0,1-4.84.7c-4.5.1-4.51,7.1,0,7Z"/></g><g class="cls-2"><path class="cls-3" d="M90.3,113.86a76.22,76.22,0,0,1,5.86-5.51,3.54,3.54,0,0,0,0-4.95,3.58,3.58,0,0,0-5,0,76.22,76.22,0,0,0-5.86,5.51,3.5,3.5,0,0,0,5,5Z"/></g><g class="cls-2"><path class="cls-3" d="M19.55,115.22a75.75,75.75,0,0,0,19.58-5.47c7.48-3.23,14.37-7.47,22.83-6.42,4.46.55,4.42-6.46,0-7-7.66-1-14.49,1.89-21.3,5.06a80.56,80.56,0,0,1-23,7.08c-4.44.63-2.55,7.37,1.86,6.75Z"/></g><g class="cls-2"><path class="cls-6" d="M4.42,65.63C5.5,77.39,13.5,87.74,18.3,98.23c1.51,3.29,1.43,7.44,6.24,6.8,5.57-.73,8.11-6.27,14.11-6.54l-.93-6.88A15.5,15.5,0,0,0,29,96.52a3.54,3.54,0,0,0,2.47,6c6.62.32,11.65-3.84,18.08-4.06,3.72-.13,4.44-4.5,1.77-6.53C42.2,85,35.28,77.08,28.14,68.33c-4.25-5.21-11.72-11.77-18.76-7.16a3.51,3.51,0,0,0-1.74,3c.36,5.7,5.41,11.33,8.82,15.61,4.5,5.66,9.46,11,11.77,18.06l5.14-4c-6.16-3.93-9.43-9.37-12.12-16-1.43-3.55-6.67-3.23-6.87.93-.17,3.53,1.8,6.9,3.25,10s2.64,7.5,5,10c4.06,4.37,12.82,1.75,17-1.37,6.18-4.63-1.84-9.71-5.31-12.47-6.61-5.26-13-10.81-17.45-18.06l-3,5.26c3.95.1,7,6.4,9.07,9.13L30,90.63c2.71,3.52,8.79,0,6-3.54-3.95-5.15-7.88-10.31-11.86-15.45-2.82-3.65-5.56-6.29-10.37-6.41a3.53,3.53,0,0,0-3,5.27c4.95,8,11.85,14.2,19.18,20l2.59,2,1.3,1c.67.76.85.67.53-.27,1-1.29-3.69.44-3.86.48-1,.23-2,.57-2.9,0-1.37-.94-2.56-5.42-3.29-7-1.08-2.3-3.1-5.31-3-7.93l-6.88.93C17.89,88.12,22.08,95,29.84,100c2.51,1.61,6.09-1.07,5.14-4-1.9-5.78-5.14-10.64-8.89-15.37-2-2.49-4.05-4.89-6-7.41-1.65-2.18-5.32-6.27-5.49-9l-1.73,3c5.57-3.64,14.64,11.69,17,14.57,5,6.16,11.6,11.41,17.88,16.17l1.76-6.52c-6.41.22-11.76,4.37-18.08,4.06l2.48,6a9.47,9.47,0,0,1,5.67-3.11c3.88-.73,3-7-.93-6.87-3.14.14-6,.52-8.72,2.18-1,.64-1.95,1.43-2.91,2.16-.65.53-1.32,1-2,1.51-1.76.78-2.14,1-1.12.7l2.44,2.44c-1.87-5.27-4.21-10.22-6.59-15.32-3-6.44-7.65-12.24-8.32-19.53-.41-4.45-7.42-4.49-7,0Z"/></g><g class="cls-2"><path class="cls-7" d="M69.55,74c4.89.4,9.16-1.13,14,.34,3.84,1.16,7.52,2.84,11.3,4.17a122.24,122.24,0,0,0,26.45,5.9v-7c-8.08.9-16.52.36-24.44,2.56-2.57.72-2,.69-4.16-.07s-4.33-2.57-6.35-3.68c-3.76-2.06-7.6-4-11.43-5.91L73.18,76.8a125.7,125.7,0,0,1,33.11,7.29l.93-6.87-18,.44,2.48,6c1.89-2.23,4.45,1.31,6.55,2.16,2.44,1,4.32.63,6.61-.41,4.1-1.86.54-7.9-3.53-6-.68.31-6.22-3.9-8-4-2.77-.2-4.9,1.36-6.6,3.38-1.86,2.19-.77,6,2.47,6l18-.44c4.09-.1,4.58-5.55.93-6.88a132.49,132.49,0,0,0-35-7.54c-3.44-.27-4.8,5-1.77,6.53,4.38,2.2,8.76,4.4,13,6.8,2.85,1.6,5.9,4.42,9.26,4.54,4.22.15,9.08-1.82,13.31-2.3,4.76-.54,9.56-.46,14.31-1a3.5,3.5,0,0,0,0-7A117.88,117.88,0,0,1,93.38,70.5c-3.69-1.4-7.41-3.11-11.31-3.81-4.23-.76-8.29.62-12.52.28-4.49-.37-4.46,6.64,0,7Z"/></g><g class="cls-2"><path class="cls-8" d="M134.15,113A130.41,130.41,0,0,1,119,128.57c-3.06,2.66.86,7.43,4.24,5.5a108.05,108.05,0,0,1,15.7-7.39,3.57,3.57,0,0,0,2.45-4.3,22.91,22.91,0,0,1-1.07-6h-7l.45,8.22c.21,3.69,6.22,5,6.88.93l.73-4.57-5.14,2.09a8.54,8.54,0,0,1,2.63,2.85l2.09-5.15-12,2c-4.43.73-2.55,7.48,1.86,6.75l12-2c2.25-.36,3.17-3.37,2.09-5.14a16.73,16.73,0,0,0-5.14-5.35c-1.73-1.19-4.8-.07-5.14,2.09l-.73,4.57,6.87.93-.45-8.22c-.25-4.47-7.21-4.52-7,0a30.64,30.64,0,0,0,1.32,7.83l2.44-4.31a119.21,119.21,0,0,0-17.37,8.1l4.24,5.49A130.41,130.41,0,0,0,139.1,118c2.84-3.45-2.08-8.43-4.95-4.95Z"/></g><path class="cls-9" d="M174.2,83.06q8,0,16-.68v-1L170.7,83c-.63,0-.64,1.06,0,1l19.52-1.62c.63-.06.64-1,0-1q-8,.63-16,.68a.5.5,0,0,0,0,1Z"/><path class="cls-9" d="M173.39,85.25a63.91,63.91,0,0,0,19.71-2.06L191,75.47a122,122,0,0,0-14.47,5.26c-4.34,2-1.1,8.16,3.08,7.31,4.48-.9,8.95-1.88,13.38-3,4.28-1.06,9.5-3.55,13.88-2.73,5,1,7.19-6.73,2.12-7.71-3.42-.67-6.91-1.58-10.37-2-3.77-.44-5.43,1.15-8.37,3.37-4,3.08-.06,10,4,6.91,2.49-1.89,3-2.39,6-1.85,2.19.38,4.37.85,6.56,1.27L209,74.62c-5.06-1-9.45.48-14.33,1.75-5.68,1.49-11.41,2.79-17.17,4l3.08,7.31a105.23,105.23,0,0,1,12.56-4.45c4.91-1.51,2.88-9-2.13-7.72a56.61,56.61,0,0,1-17.58,1.78c-5.15-.27-5.13,7.73,0,8Z"/><path class="cls-10" d="M197.2,100.13a2,2,0,0,1,.05.42,1.9,1.9,0,0,1-1.46,1.85l-16.11,3.74a1.87,1.87,0,0,1-2.26-1.41,2.18,2.18,0,0,1,0-.43,1.89,1.89,0,0,1,1.46-1.83l16.1-3.75A1.9,1.9,0,0,1,197.2,100.13Z"/><path class="cls-11" d="M201.65,99.39l16.18-3.76a3,3,0,0,0,.7-.27c9.73-5.46,5.08-12.39,3.51-14.3a2.49,2.49,0,0,0-1-.73c-1.3-.55-2.58-1.07-3.83-1.57a144.25,144.25,0,0,0-20.1-6.43c-15.76-3.7-23.73-2-23.73-2L127.6,80.93,95.34,88.44l-38.74,9-34.85,8.11-4.7,1.09a2.55,2.55,0,0,0-1.62,1.17c-1.68,2.76-5.17,10.82,8.63,14.25"/><polyline class="cls-11" points="30.62 113.83 18.6 134.87 36.57 130.69 43.23 122.67 55.34 108.08"/><path class="cls-11" d="M43.23,122.67c1.15,6.64,39.28,5,39.28,5l12.15-2.82.16,0"/><polyline class="cls-11" points="100.04 115.93 94.66 124.89 72.86 161.18 95.55 155.9 114.95 133.96 133.47 113.02 138.89 106.89"/><path class="cls-11" d="M153.63,110.36a4.06,4.06,0,0,1,1.49,2.49c1.18,5.53,1.52,6.52,1.52,6.52s1.24,5.36-7.25,7.17l-5.6,1.33-28.17,6.68"/><path class="cls-11" d="M133.47,113l6.5-1.51,6.15-1.43s4.87-1.71,7.5.28"/><polyline class="cls-11" points="153.62 110.36 153.63 110.36 171.62 106.18"/><polyline class="cls-11" points="57.1 97.94 56.6 97.45 17.39 59.43 2.81 62.82 21.75 105.56 21.99 106.11"/><polyline class="cls-11" points="96.11 88.87 95.34 88.44 61.33 69.23 79.65 64.97 127.6 80.93 128.67 81.29"/><line class="cls-11" x1="139.97" y1="111.51" x2="143.19" y2="125.36"/><path class="cls-11" d="M197.09,72.46l-30.17,7a54,54,0,0,0,9.89,7.2c4.42,2.58,40.22-7.46,40.22-7.46"/><path class="cls-12" d="M75.08,112.24l10.71-2.49s-1-7.69-7.63-7C78.16,102.7,72.79,104.4,75.08,112.24Z"/><path class="cls-12" d="M90.35,108.69l10.71-2.49s-1-7.69-7.64-7.06C93.42,99.14,88.06,100.84,90.35,108.69Z"/><path class="cls-12" d="M106.46,104.94l10.7-2.49s-1-7.69-7.63-7C109.53,95.4,104.16,97.1,106.46,104.94Z"/><path class="cls-12" d="M121.72,101.39l10.71-2.49s-1-7.69-7.63-7.05C124.8,91.85,119.43,93.55,121.72,101.39Z"/></g></g></svg>